<?xml version="1.0" encoding="UTF-8" standalone="no"?>
<!DOCTYPE svg PUBLIC "-//W3C//DTD SVG 1.1//EN"
 "http://www.w3.org/Graphics/SVG/1.1/DTD/svg11.dtd">
<!-- Generated by graphviz version 2.28.0 (20110507.0327)
 -->
<!-- Title: G Pages: 1 -->
<svg width="303pt" height="2044pt"
 viewBox="0.00 0.00 303.00 2044.00" xmlns="http://www.w3.org/2000/svg" xmlns:xlink="http://www.w3.org/1999/xlink">
<g id="graph1" class="graph" transform="scale(1 1) rotate(0) translate(4 2040)">
<title>G</title>
<polygon fill="white" stroke="white" points="-4,5 -4,-2040 300,-2040 300,5 -4,5"/>
<g id="graph2" class="cluster"><title>cluster_global</title>
<polyline fill="none" stroke="gray" points="194,-8 250,-8 "/>
<path fill="none" stroke="gray" d="M250,-8C256,-8 262,-14 262,-20"/>
<polyline fill="none" stroke="gray" points="262,-20 262,-122 "/>
<path fill="none" stroke="gray" d="M262,-122C262,-128 256,-134 250,-134"/>
<polyline fill="none" stroke="gray" points="250,-134 194,-134 "/>
<path fill="none" stroke="gray" d="M194,-134C188,-134 182,-128 182,-122"/>
<polyline fill="none" stroke="gray" points="182,-122 182,-20 "/>
<path fill="none" stroke="gray" d="M182,-20C182,-14 188,-8 194,-8"/>
<text text-anchor="middle" x="222" y="-121.2" font-family="Times New Roman,serif" font-size="11.00" fill="gray">global</text>
</g>
<g id="graph3" class="cluster"><title>cluster_sprite</title>
<polyline fill="none" stroke="gray" points="20,-142 275,-142 "/>
<path fill="none" stroke="gray" d="M275,-142C281,-142 287,-148 287,-154"/>
<polyline fill="none" stroke="gray" points="287,-154 287,-2016 "/>
<path fill="none" stroke="gray" d="M287,-2016C287,-2022 281,-2028 275,-2028"/>
<polyline fill="none" stroke="gray" points="275,-2028 20,-2028 "/>
<path fill="none" stroke="gray" d="M20,-2028C14,-2028 8,-2022 8,-2016"/>
<polyline fill="none" stroke="gray" points="8,-2016 8,-154 "/>
<path fill="none" stroke="gray" d="M8,-154C8,-148 14,-142 20,-142"/>
<text text-anchor="middle" x="147.5" y="-2015.2" font-family="Times New Roman,serif" font-size="11.00" fill="gray">sprite</text>
</g>
<g id="graph4" class="cluster"><title>cluster_sprite\db</title>
<polyline fill="none" stroke="gray" points="183,-1766 261,-1766 "/>
<path fill="none" stroke="gray" d="M261,-1766C267,-1766 273,-1772 273,-1778"/>
<polyline fill="none" stroke="gray" points="273,-1778 273,-1988 "/>
<path fill="none" stroke="gray" d="M273,-1988C273,-1994 267,-2000 261,-2000"/>
<polyline fill="none" stroke="gray" points="261,-2000 183,-2000 "/>
<path fill="none" stroke="gray" d="M183,-2000C177,-2000 171,-1994 171,-1988"/>
<polyline fill="none" stroke="gray" points="171,-1988 171,-1778 "/>
<path fill="none" stroke="gray" d="M171,-1778C171,-1772 177,-1766 183,-1766"/>
<text text-anchor="middle" x="222" y="-1987.2" font-family="Times New Roman,serif" font-size="11.00" fill="gray">db</text>
</g>
<g id="graph5" class="cluster"><title>cluster_sprite\exception</title>
<polyline fill="none" stroke="gray" points="177,-1632 267,-1632 "/>
<path fill="none" stroke="gray" d="M267,-1632C273,-1632 279,-1638 279,-1644"/>
<polyline fill="none" stroke="gray" points="279,-1644 279,-1746 "/>
<path fill="none" stroke="gray" d="M279,-1746C279,-1752 273,-1758 267,-1758"/>
<polyline fill="none" stroke="gray" points="267,-1758 177,-1758 "/>
<path fill="none" stroke="gray" d="M177,-1758C171,-1758 165,-1752 165,-1746"/>
<polyline fill="none" stroke="gray" points="165,-1746 165,-1644 "/>
<path fill="none" stroke="gray" d="M165,-1644C165,-1638 171,-1632 177,-1632"/>
<text text-anchor="middle" x="222" y="-1745.2" font-family="Times New Roman,serif" font-size="11.00" fill="gray">exception</text>
</g>
<g id="graph6" class="cluster"><title>cluster_sprite\lib</title>
<polyline fill="none" stroke="gray" points="184,-796 260,-796 "/>
<path fill="none" stroke="gray" d="M260,-796C266,-796 272,-802 272,-808"/>
<polyline fill="none" stroke="gray" points="272,-808 272,-1612 "/>
<path fill="none" stroke="gray" d="M272,-1612C272,-1618 266,-1624 260,-1624"/>
<polyline fill="none" stroke="gray" points="260,-1624 184,-1624 "/>
<path fill="none" stroke="gray" d="M184,-1624C178,-1624 172,-1618 172,-1612"/>
<polyline fill="none" stroke="gray" points="172,-1612 172,-808 "/>
<path fill="none" stroke="gray" d="M172,-808C172,-802 178,-796 184,-796"/>
<text text-anchor="middle" x="222" y="-1611.2" font-family="Times New Roman,serif" font-size="11.00" fill="gray">lib</text>
</g>
<g id="graph7" class="cluster"><title>cluster_sprite\mvc</title>
<polyline fill="none" stroke="gray" points="28,-230 267,-230 "/>
<path fill="none" stroke="gray" d="M267,-230C273,-230 279,-236 279,-242"/>
<polyline fill="none" stroke="gray" points="279,-242 279,-776 "/>
<path fill="none" stroke="gray" d="M279,-776C279,-782 273,-788 267,-788"/>
<polyline fill="none" stroke="gray" points="267,-788 28,-788 "/>
<path fill="none" stroke="gray" d="M28,-788C22,-788 16,-782 16,-776"/>
<polyline fill="none" stroke="gray" points="16,-776 16,-242 "/>
<path fill="none" stroke="gray" d="M16,-242C16,-236 22,-230 28,-230"/>
<text text-anchor="middle" x="147.5" y="-775.2" font-family="Times New Roman,serif" font-size="11.00" fill="gray">mvc</text>
</g>
<g id="graph8" class="cluster"><title>cluster_sprite\plugin</title>
<polyline fill="none" stroke="gray" points="194,-150 250,-150 "/>
<path fill="none" stroke="gray" d="M250,-150C256,-150 262,-156 262,-162"/>
<polyline fill="none" stroke="gray" points="262,-162 262,-210 "/>
<path fill="none" stroke="gray" d="M262,-210C262,-216 256,-222 250,-222"/>
<polyline fill="none" stroke="gray" points="250,-222 194,-222 "/>
<path fill="none" stroke="gray" d="M194,-222C188,-222 182,-216 182,-210"/>
<polyline fill="none" stroke="gray" points="182,-210 182,-162 "/>
<path fill="none" stroke="gray" d="M182,-162C182,-156 188,-150 194,-150"/>
<text text-anchor="middle" x="222" y="-209.2" font-family="Times New Roman,serif" font-size="11.00" fill="gray">plugin</text>
</g>
<!-- \\FB -->
<g id="node2" class="node"><title>\\FB</title>
<a xlink:href="shared.firephp.FirePHPCore.fb.html" xlink:title="FB" target="_parent">
<polygon fill="none" stroke="black" points="249,-106 195,-106 195,-70 249,-70 249,-106"/>
<text text-anchor="middle" x="222" y="-85.2" font-family="Courier,monospace" font-size="11.00">FB</text>
</a>
</g>
<!-- \\FirePHP -->
<g id="node3" class="node"><title>\\FirePHP</title>
<a xlink:href="shared.firephp.FirePHPCore.FirePHP.class.html" xlink:title="FirePHP" target="_parent">
<polygon fill="none" stroke="black" points="254,-52 190,-52 190,-16 254,-16 254,-52"/>
<text text-anchor="middle" x="222" y="-31.2" font-family="Courier,monospace" font-size="11.00">FirePHP</text>
</a>
</g>
<!-- \\sprite\\db\\BaseDao -->
<g id="node6" class="node"><title>\\sprite\\db\\BaseDao</title>
<a xlink:href="db.basedao.html" xlink:title="«abstract»&lt;br/&gt;BaseDao" target="_parent">
<polygon fill="none" stroke="black" points="264.5,-1972 179.5,-1972 179.5,-1936 264.5,-1936 264.5,-1972"/>
<text text-anchor="start" x="188" y="-1957.7" font-family="Courier,monospace" font-size="11.00">«abstract»</text>
<text text-anchor="start" x="198" y="-1946.7" font-family="Courier,monospace" font-size="11.00">BaseDao</text>
</a>
</g>
<!-- \\sprite\\db\\PDOext -->
<g id="node7" class="node"><title>\\sprite\\db\\PDOext</title>
<a xlink:href="db.pdoext.html" xlink:title="PDOext" target="_parent">
<polygon fill="none" stroke="black" points="250.5,-1918 193.5,-1918 193.5,-1882 250.5,-1882 250.5,-1918"/>
<text text-anchor="middle" x="222" y="-1897.2" font-family="Courier,monospace" font-size="11.00">PDOext</text>
</a>
</g>
<!-- \\PDO -->
<g id="node44" class="node"><title>\\PDO</title>
<ellipse fill="none" stroke="black" cx="51" cy="-116" rx="31.6951" ry="18"/>
<text text-anchor="middle" x="51" y="-112.3" font-family="Times New Roman,serif" font-size="14.00" fill="gray">\PDO</text>
</g>
<!-- \\sprite\\db\\PDOext&#45;&gt;\\PDO -->
<g id="edge9" class="edge"><title>\\sprite\\db\\PDOext&#45;&gt;\\PDO</title>
<path fill="none" stroke="black" d="M193.483,-1893.36C182.763,-1889.31 171.508,-1882.93 165,-1873 64.6072,-1719.83 142.565,-404.359 101,-226 93.9735,-195.849 78.6799,-163.772 67.0348,-142.087"/>
<polygon fill="none" stroke="black" points="70.0256,-140.262 62.1432,-133.182 63.8904,-143.632 70.0256,-140.262"/>
</g>
<!-- \\sprite\\db\\PDOManager -->
<g id="node8" class="node"><title>\\sprite\\db\\PDOManager</title>
<a xlink:href="db.pdomanager.html" xlink:title="PDOManager" target="_parent">
<polygon fill="none" stroke="black" points="264,-1864 180,-1864 180,-1828 264,-1828 264,-1864"/>
<text text-anchor="middle" x="222" y="-1843.2" font-family="Courier,monospace" font-size="11.00">PDOManager</text>
</a>
</g>
<!-- \\sprite\\db\\SqlUtil -->
<g id="node9" class="node"><title>\\sprite\\db\\SqlUtil</title>
<a xlink:href="db.sqlutil.html" xlink:title="SqlUtil" target="_parent">
<polygon fill="none" stroke="black" points="254,-1810 190,-1810 190,-1774 254,-1774 254,-1810"/>
<text text-anchor="middle" x="222" y="-1789.2" font-family="Courier,monospace" font-size="11.00">SqlUtil</text>
</a>
</g>
<!-- \\sprite\\exception\\BizException -->
<g id="node11" class="node"><title>\\sprite\\exception\\BizException</title>
<a xlink:href="exception.bizexception.html" xlink:title="BizException" target="_parent">
<polygon fill="none" stroke="black" points="271,-1730 173,-1730 173,-1694 271,-1694 271,-1730"/>
<text text-anchor="middle" x="222" y="-1709.2" font-family="Courier,monospace" font-size="11.00">BizException</text>
</a>
</g>
<!-- \\Exception -->
<g id="node46" class="node"><title>\\Exception</title>
<ellipse fill="none" stroke="black" cx="51" cy="-62" rx="50.0912" ry="18"/>
<text text-anchor="middle" x="51" y="-58.3" font-family="Times New Roman,serif" font-size="14.00" fill="gray">\Exception</text>
</g>
<!-- \\sprite\\exception\\BizException&#45;&gt;\\Exception -->
<g id="edge11" class="edge"><title>\\sprite\\exception\\BizException&#45;&gt;\\Exception</title>
<path fill="none" stroke="black" d="M172.734,-1693.65C169.772,-1691.12 167.132,-1688.25 165,-1685 67.6191,-1536.63 194.312,-239.965 101,-89 99.2126,-86.1083 96.9981,-83.5026 94.5066,-81.1588"/>
<polygon fill="none" stroke="black" points="96.4124,-78.2092 86.3514,-74.8887 92.1458,-83.7586 96.4124,-78.2092"/>
</g>
<!-- \\sprite\\exception\\DataAssert -->
<g id="node12" class="node"><title>\\sprite\\exception\\DataAssert</title>
<a xlink:href="exception.dataassert.html" xlink:title="DataAssert" target="_parent">
<polygon fill="none" stroke="black" points="264,-1676 180,-1676 180,-1640 264,-1640 264,-1676"/>
<text text-anchor="middle" x="222" y="-1655.2" font-family="Courier,monospace" font-size="11.00">DataAssert</text>
</a>
</g>
<!-- \\sprite\\lib\\area -->
<g id="node14" class="node"><title>\\sprite\\lib\\area</title>
<a xlink:href="lib.area.html" xlink:title="area" target="_parent">
<polygon fill="none" stroke="black" points="249,-1596 195,-1596 195,-1560 249,-1560 249,-1596"/>
<text text-anchor="middle" x="222" y="-1575.2" font-family="Courier,monospace" font-size="11.00">area</text>
</a>
</g>
<!-- \\sprite\\lib\\ArraySort -->
<g id="node15" class="node"><title>\\sprite\\lib\\ArraySort</title>
<a xlink:href="lib.arraysort.html" xlink:title="ArraySort" target="_parent">
<polygon fill="none" stroke="black" points="260.5,-1542 183.5,-1542 183.5,-1506 260.5,-1506 260.5,-1542"/>
<text text-anchor="middle" x="222" y="-1521.2" font-family="Courier,monospace" font-size="11.00">ArraySort</text>
</a>
</g>
<!-- \\sprite\\lib\\Auth -->
<g id="node16" class="node"><title>\\sprite\\lib\\Auth</title>
<a xlink:href="lib.auth.html" xlink:title="Auth" target="_parent">
<polygon fill="none" stroke="black" points="249,-1488 195,-1488 195,-1452 249,-1452 249,-1488"/>
<text text-anchor="middle" x="222" y="-1467.2" font-family="Courier,monospace" font-size="11.00">Auth</text>
</a>
</g>
<!-- \\sprite\\lib\\Config -->
<g id="node17" class="node"><title>\\sprite\\lib\\Config</title>
<a xlink:href="lib.config.html" xlink:title="Config" target="_parent">
<polygon fill="none" stroke="black" points="250.5,-1434 193.5,-1434 193.5,-1398 250.5,-1398 250.5,-1434"/>
<text text-anchor="middle" x="222" y="-1413.2" font-family="Courier,monospace" font-size="11.00">Config</text>
</a>
</g>
<!-- \\sprite\\lib\\Cookie -->
<g id="node18" class="node"><title>\\sprite\\lib\\Cookie</title>
<a xlink:href="lib.cookie.html" xlink:title="Cookie" target="_parent">
<polygon fill="none" stroke="black" points="250.5,-1380 193.5,-1380 193.5,-1344 250.5,-1344 250.5,-1380"/>
<text text-anchor="middle" x="222" y="-1359.2" font-family="Courier,monospace" font-size="11.00">Cookie</text>
</a>
</g>
<!-- \\sprite\\lib\\Crypt -->
<g id="node19" class="node"><title>\\sprite\\lib\\Crypt</title>
<a xlink:href="lib.crypt.html" xlink:title="Crypt" target="_parent">
<polygon fill="none" stroke="black" points="249,-1326 195,-1326 195,-1290 249,-1290 249,-1326"/>
<text text-anchor="middle" x="222" y="-1305.2" font-family="Courier,monospace" font-size="11.00">Crypt</text>
</a>
</g>
<!-- \\sprite\\lib\\Debug -->
<g id="node20" class="node"><title>\\sprite\\lib\\Debug</title>
<a xlink:href="lib.debug.html" xlink:title="Debug" target="_parent">
<polygon fill="none" stroke="black" points="249,-1272 195,-1272 195,-1236 249,-1236 249,-1272"/>
<text text-anchor="middle" x="222" y="-1251.2" font-family="Courier,monospace" font-size="11.00">Debug</text>
</a>
</g>
<!-- \\sprite\\lib\\Imagick -->
<g id="node21" class="node"><title>\\sprite\\lib\\Imagick</title>
<a xlink:href="lib.imagick.html" xlink:title="Imagick" target="_parent">
<polygon fill="none" stroke="black" points="254,-1218 190,-1218 190,-1182 254,-1182 254,-1218"/>
<text text-anchor="middle" x="222" y="-1197.2" font-family="Courier,monospace" font-size="11.00">Imagick</text>
</a>
</g>
<!-- \\sprite\\lib\\Ip -->
<g id="node22" class="node"><title>\\sprite\\lib\\Ip</title>
<a xlink:href="lib.ip.html" xlink:title="Ip" target="_parent">
<polygon fill="none" stroke="black" points="249,-1164 195,-1164 195,-1128 249,-1128 249,-1164"/>
<text text-anchor="middle" x="222" y="-1143.2" font-family="Courier,monospace" font-size="11.00">Ip</text>
</a>
</g>
<!-- \\sprite\\lib\\IpLocation -->
<g id="node23" class="node"><title>\\sprite\\lib\\IpLocation</title>
<a xlink:href="lib.iplocation.html" xlink:title="IpLocation" target="_parent">
<polygon fill="none" stroke="black" points="264,-1110 180,-1110 180,-1074 264,-1074 264,-1110"/>
<text text-anchor="middle" x="222" y="-1089.2" font-family="Courier,monospace" font-size="11.00">IpLocation</text>
</a>
</g>
<!-- \\sprite\\lib\\Registry -->
<g id="node24" class="node"><title>\\sprite\\lib\\Registry</title>
<a xlink:href="lib.registry.html" xlink:title="Registry" target="_parent">
<polygon fill="none" stroke="black" points="257.5,-1056 186.5,-1056 186.5,-1020 257.5,-1020 257.5,-1056"/>
<text text-anchor="middle" x="222" y="-1035.2" font-family="Courier,monospace" font-size="11.00">Registry</text>
</a>
</g>
<!-- \\sprite\\lib\\Roll -->
<g id="node25" class="node"><title>\\sprite\\lib\\Roll</title>
<a xlink:href="lib.roll.html" xlink:title="Roll" target="_parent">
<polygon fill="none" stroke="black" points="249,-1002 195,-1002 195,-966 249,-966 249,-1002"/>
<text text-anchor="middle" x="222" y="-981.2" font-family="Courier,monospace" font-size="11.00">Roll</text>
</a>
</g>
<!-- \\sprite\\lib\\ThumbImg -->
<g id="node26" class="node"><title>\\sprite\\lib\\ThumbImg</title>
<a xlink:href="lib.thumbimg.html" xlink:title="ThumbImg" target="_parent">
<polygon fill="none" stroke="black" points="257.5,-948 186.5,-948 186.5,-912 257.5,-912 257.5,-948"/>
<text text-anchor="middle" x="222" y="-927.2" font-family="Courier,monospace" font-size="11.00">ThumbImg</text>
</a>
</g>
<!-- \\sprite\\lib\\Tree -->
<g id="node27" class="node"><title>\\sprite\\lib\\Tree</title>
<a xlink:href="lib.tree.html" xlink:title="Tree" target="_parent">
<polygon fill="none" stroke="black" points="249,-894 195,-894 195,-858 249,-858 249,-894"/>
<text text-anchor="middle" x="222" y="-873.2" font-family="Courier,monospace" font-size="11.00">Tree</text>
</a>
</g>
<!-- \\sprite\\lib\\UString -->
<g id="node28" class="node"><title>\\sprite\\lib\\UString</title>
<a xlink:href="lib.ustr.html" xlink:title="UString" target="_parent">
<polygon fill="none" stroke="black" points="254,-840 190,-840 190,-804 254,-804 254,-840"/>
<text text-anchor="middle" x="222" y="-819.2" font-family="Courier,monospace" font-size="11.00">UString</text>
</a>
</g>
<!-- \\sprite\\mvc\\App -->
<g id="node30" class="node"><title>\\sprite\\mvc\\App</title>
<a xlink:href="mvc.app.html" xlink:title="App" target="_parent">
<polygon fill="none" stroke="black" points="249,-760 195,-760 195,-724 249,-724 249,-760"/>
<text text-anchor="middle" x="222" y="-739.2" font-family="Courier,monospace" font-size="11.00">App</text>
</a>
</g>
<!-- \\sprite\\mvc\\Controller -->
<g id="node31" class="node"><title>\\sprite\\mvc\\Controller</title>
<a xlink:href="mvc.controller.html" xlink:title="Controller" target="_parent">
<polygon fill="none" stroke="black" points="264,-706 180,-706 180,-670 264,-670 264,-706"/>
<text text-anchor="middle" x="222" y="-685.2" font-family="Courier,monospace" font-size="11.00">Controller</text>
</a>
</g>
<!-- \\sprite\\mvc\\iView -->
<g id="node32" class="node"><title>\\sprite\\mvc\\iView</title>
<a xlink:href="mvc.iview.html" xlink:title="iView" target="_parent">
<polygon fill="none" stroke="black" points="78,-463 24,-463 24,-427 78,-427 78,-463"/>
<text text-anchor="middle" x="51" y="-442.2" font-family="Courier,monospace" font-size="11.00">iView</text>
</a>
</g>
<!-- \\sprite\\mvc\\JsonView -->
<g id="node33" class="node"><title>\\sprite\\mvc\\JsonView</title>
<a xlink:href="mvc.jsonview.html" xlink:title="JsonView" target="_parent">
<polygon fill="none" stroke="black" points="257.5,-652 186.5,-652 186.5,-616 257.5,-616 257.5,-652"/>
<text text-anchor="middle" x="222" y="-631.2" font-family="Courier,monospace" font-size="11.00">JsonView</text>
</a>
</g>
<!-- \\sprite\\mvc\\JsonView&#45;&gt;\\sprite\\mvc\\iView -->
<g id="edge13" class="edge"><title>\\sprite\\mvc\\JsonView&#45;&gt;\\sprite\\mvc\\iView</title>
<path fill="none" stroke="black" stroke-dasharray="1,5" d="M186.431,-620.762C178.914,-616.979 171.327,-612.389 165,-607 119.543,-568.283 83.6441,-507.285 65.332,-472.229"/>
<polygon fill="none" stroke="black" points="68.3144,-470.375 60.6401,-463.07 62.0842,-473.566 68.3144,-470.375"/>
</g>
<!-- \\sprite\\mvc\\PhpView -->
<g id="node34" class="node"><title>\\sprite\\mvc\\PhpView</title>
<a xlink:href="mvc.phpview.html" xlink:title="PhpView" target="_parent">
<polygon fill="none" stroke="black" points="254,-598 190,-598 190,-562 254,-562 254,-598"/>
<text text-anchor="middle" x="222" y="-577.2" font-family="Courier,monospace" font-size="11.00">PhpView</text>
</a>
</g>
<!-- \\sprite\\mvc\\PhpView&#45;&gt;\\sprite\\mvc\\iView -->
<g id="edge15" class="edge"><title>\\sprite\\mvc\\PhpView&#45;&gt;\\sprite\\mvc\\iView</title>
<path fill="none" stroke="black" stroke-dasharray="1,5" d="M189.806,-567.088C181.452,-563.069 172.629,-558.287 165,-553 130.332,-528.975 96.1061,-494.311 74.5652,-470.784"/>
<polygon fill="none" stroke="black" points="77.0674,-468.333 67.764,-463.264 71.8756,-473.028 77.0674,-468.333"/>
</g>
<!-- \\sprite\\mvc\\Request -->
<g id="node35" class="node"><title>\\sprite\\mvc\\Request</title>
<a xlink:href="mvc.request.html" xlink:title="Request" target="_parent">
<polygon fill="none" stroke="black" points="254,-544 190,-544 190,-508 254,-508 254,-544"/>
<text text-anchor="middle" x="222" y="-523.2" font-family="Courier,monospace" font-size="11.00">Request</text>
</a>
</g>
<!-- \\sprite\\mvc\\Response -->
<g id="node36" class="node"><title>\\sprite\\mvc\\Response</title>
<a xlink:href="mvc.response.html" xlink:title="Response" target="_parent">
<polygon fill="none" stroke="black" points="257.5,-490 186.5,-490 186.5,-454 257.5,-454 257.5,-490"/>
<text text-anchor="middle" x="222" y="-469.2" font-family="Courier,monospace" font-size="11.00">Response</text>
</a>
</g>
<!-- \\sprite\\mvc\\Router -->
<g id="node37" class="node"><title>\\sprite\\mvc\\Router</title>
<a xlink:href="mvc.router.html" xlink:title="Router" target="_parent">
<polygon fill="none" stroke="black" points="250.5,-436 193.5,-436 193.5,-400 250.5,-400 250.5,-436"/>
<text text-anchor="middle" x="222" y="-415.2" font-family="Courier,monospace" font-size="11.00">Router</text>
</a>
</g>
<!-- \\sprite\\mvc\\SimpleRouter -->
<g id="node38" class="node"><title>\\sprite\\mvc\\SimpleRouter</title>
<a xlink:href="mvc.simplerouter.html" xlink:title="SimpleRouter" target="_parent">
<polygon fill="none" stroke="black" points="271,-382 173,-382 173,-346 271,-346 271,-382"/>
<text text-anchor="middle" x="222" y="-361.2" font-family="Courier,monospace" font-size="11.00">SimpleRouter</text>
</a>
</g>
<!-- \\sprite\\mvc\\SmartyView -->
<g id="node39" class="node"><title>\\sprite\\mvc\\SmartyView</title>
<a xlink:href="mvc.smartyview.html" xlink:title="SmartyView" target="_parent">
<polygon fill="none" stroke="black" points="264,-328 180,-328 180,-292 264,-292 264,-328"/>
<text text-anchor="middle" x="222" y="-307.2" font-family="Courier,monospace" font-size="11.00">SmartyView</text>
</a>
</g>
<!-- \\sprite\\mvc\\SmartyView&#45;&gt;\\sprite\\mvc\\iView -->
<g id="edge17" class="edge"><title>\\sprite\\mvc\\SmartyView&#45;&gt;\\sprite\\mvc\\iView</title>
<path fill="none" stroke="black" stroke-dasharray="1,5" d="M179.819,-326.972C174.585,-329.943 169.495,-333.289 165,-337 128.259,-367.333 138.151,-393.171 101,-423 96.8792,-426.309 92.1816,-429.231 87.3645,-431.775"/>
<polygon fill="none" stroke="black" points="85.5941,-428.741 78.0739,-436.204 88.6067,-435.06 85.5941,-428.741"/>
</g>
<!-- \\sprite\\mvc\\StringView -->
<g id="node40" class="node"><title>\\sprite\\mvc\\StringView</title>
<a xlink:href="mvc.stringview.html" xlink:title="StringView" target="_parent">
<polygon fill="none" stroke="black" points="264,-274 180,-274 180,-238 264,-238 264,-274"/>
<text text-anchor="middle" x="222" y="-253.2" font-family="Courier,monospace" font-size="11.00">StringView</text>
</a>
</g>
<!-- \\sprite\\mvc\\StringView&#45;&gt;\\sprite\\mvc\\iView -->
<g id="edge19" class="edge"><title>\\sprite\\mvc\\StringView&#45;&gt;\\sprite\\mvc\\iView</title>
<path fill="none" stroke="black" stroke-dasharray="1,5" d="M179.897,-271.614C174.47,-274.829 169.305,-278.605 165,-283 117.121,-331.87 149.541,-374.787 101,-423 97.0303,-426.943 92.2298,-430.246 87.2059,-432.993"/>
<polygon fill="none" stroke="black" points="85.5751,-429.893 78.053,-437.354 88.5861,-436.212 85.5751,-429.893"/>
</g>
<!-- \\sprite\\plugin\\PageNav -->
<g id="node42" class="node"><title>\\sprite\\plugin\\PageNav</title>
<a xlink:href="plugin.pagenav.html" xlink:title="PageNav" target="_parent">
<polygon fill="none" stroke="black" points="254,-194 190,-194 190,-158 254,-158 254,-194"/>
<text text-anchor="middle" x="222" y="-173.2" font-family="Courier,monospace" font-size="11.00">PageNav</text>
</a>
</g>
</g>
</svg>
